# xmcd
#
# Track frame offsets:
#	150
#	12220
#	31760
#	53897
#	80305
#	92547
#	103185
#	126602
#	149785
#	166105
#	182087
#
# Disc length: 2624 seconds
#
# Revision: 1
# Processed by: cddbd v1.5.1PL0 Copyright (c) Steve Scherf et al.
# Submitted via: CDex 1.50Beta5
#
DISCID=8e0a3e0b
DTITLE=ルイ・アームストロング - コレクション
DYEAR=1989
DGENRE=Jazz
TTITLE0=ホエン・イッツ・スリーピー・タイム・ダウン・サウス
TTITLE1=インディアナ
TTITLE2=ジプシー
TTITLE3=ベイジン・ストリート・ブルース
TTITLE4=タイガー・ラグ
TTITLE5=ホワット・ア・ワンダフル・ワールド
TTITLE6=ストラッティン・ウィズ・サム・バーベキュー
TTITLE7=ドゥ・ユー・ノウ・ホワット・イット・ミーンズ・トゥ・ミス・ニューオーリンズ
TTITLE8=オン・ザ・サニー・サイド・オブ・ザ・ストリート
TTITLE9=ブラック&ブルー
TTITLE10=聖者が町にやってくる
EXTD=
EXTT0=
EXTT1=
EXTT2=
EXTT3=
EXTT4=
EXTT5=
EXTT6=
EXTT7=
EXTT8=
EXTT9=
EXTT10=
PLAYORDER=
